<?xml version="1.0" encoding="UTF-8"?>
<svg width="375px" height="406px" viewBox="0 0 375 406" version="1.1" xmlns="http://www.w3.org/2000/svg" xmlns:xlink="http://www.w3.org/1999/xlink">
    <!-- Generator: Sketch 61.2 (89653) - https://sketch.com -->
    <title>Blob / B</title>
    <desc>Created with Sketch.</desc>
    <defs>
        <rect id="path-1" x="0" y="0" width="375" height="812"></rect>
    </defs>
    <g id="Symbols" stroke="none" stroke-width="1" fill="none" fill-rule="evenodd">
        <g id="Screen-/-Card">
            <g id="Group" fill="#1C1B22">
                <g id="Backdrop">
                    <rect id="BG" x="0" y="0" width="375" height="812"></rect>
                </g>
            </g>
            <g id="Group-2">
                <mask id="mask-2" fill="white">
                    <use xlink:href="#path-1"></use>
                </mask>
                <g id="Rectangle"></g>
                <g id="Blob-/-B" mask="url(#mask-2)">
                    <g transform="translate(-90.000000, -150.000000)" id="Fill-1">
                        <path d="M509.488847,71.2397258 C564.758792,86.0651602 599.018996,158.143288 599.973985,226.725989 C601.048346,295.429222 568.698119,360.637027 530.498589,417.769188 C492.299058,474.780818 448.011478,523.475741 399.42645,527.212233 C350.722048,530.828192 297.7202,489.244657 263.101876,452.361869 C228.483551,415.358549 212.368124,383.055976 166.648061,346.775848 C120.927998,310.49572 45.6032991,270.358568 28.771631,218.650346 C11.9399629,167.062655 53.7206993,103.903894 108.871271,89.0784599 C164.141217,74.1324935 233.019745,107.519854 305.47948,103.06017 C378.058587,98.6004868 454.218901,56.2937594 509.488847,71.2397258" fill="#C069FF" opacity="0.400000006"></path>
                        <path d="M505.164563,58.4491356 C540.590919,84.127171 555.98314,138.109404 573.985984,198.073453 C591.991732,258.183399 612.899947,323.983365 589.813793,364.688887 C566.872835,405.540307 499.936057,421.297283 429.516029,462.732295 C358.952256,504.167307 284.611938,571.426251 245.844623,552.167725 C207.222504,532.7633 204.17339,426.987302 158.43667,346.451646 C112.845147,265.91599 24.5660182,210.620675 25,164.516929 C25.4371938,118.413184 114.297106,81.3551104 184.571939,62.0965838 C254.991967,42.6921594 306.536524,40.7954863 360.25902,38.3152215 C413.981516,35.9808547 469.591559,32.9169982 505.164563,58.4491356" fill-opacity="0.4" fill="#8000D7" transform="translate(312.500000, 296.182495) rotate(-180.000000) translate(-312.500000, -296.182495) "></path>
                    </g>
                </g>
            </g>
        </g>
    </g>
</svg>
