<svg height="14" viewBox="0 0 16 14" width="16" xmlns="http://www.w3.org/2000/svg"><path fill="context-fill" d="m13 1.0002c.53 0 1.039.211 1.414.586l1 1c.383.382.566.894.567 1.414h.019v7.991c0 1.659-1.35 3.009-3.009 3.009h-9.982c-1.659 0-3.009-1.35-3.009-3.009v-7.991h.019c.001-.52.184-1.032.567-1.414l1-1c.375-.375.884-.586 1.414-.586zm1 5h-12v5.991c0 .557.452 1.009 1.009 1.009h9.982c.557 0 1.009-.452 1.009-1.009zm-2.5 4.9998c.276 0 .5.224.5.5s-.224.5-.5.5h-7c-.276 0-.5-.224-.5-.5s.224-.5.5-.5zm0-2c.276 0 .5.224.5.5s-.224.5-.5.5h-7c-.276 0-.5-.224-.5-.5s.224-.5.5-.5zm0-2c.276 0 .5.224.5.5s-.224.5-.5.5h-7c-.276 0-.5-.224-.5-.5s.224-.5.5-.5zm1.5-3.9998h-10l-1 1h12z"/></svg>
