<!-- This Source Code Form is subject to the terms of the Mozilla Public
   - License, v. 2.0. If a copy of the MPL was not distributed with this
   - file, You can obtain one at http://mozilla.org/MPL/2.0/. -->
<svg id="Flat_For_Export_" data-name="icon" xmlns="http://www.w3.org/2000/svg" viewBox="0 0 16 16">
  <path fill="context-fill" fill-opacity="context-fill-opacity" class="cls-1" d="M8.35 7.06A3.83 3.83 0 0 1 7 6.35C7.12 6.21 7.35 6 8 6a5.68 5.68 0 0 1 1.7 0.24 1 1 0 0 0 0.6-1.9A6.81 6.81 0 0 0 9 4.07V4a1 1 0 0 0-2 0v0.14A2.51 2.51 0 0 0 5 6.5C5 6.93 5.26 8 7.65 8.94A3.83 3.83 0 0 1 9 9.65C8.92 9.79 8.69 10 8 10a5.68 5.68 0 0 1-1.7-0.24 1 1 0 0 0-0.6 1.9A6.81 6.81 0 0 0 7 11.93V12a1 1 0 0 0 2 0v-0.14a2.51 2.51 0 0 0 2-2.36c0-0.43-0.26-1.5-2.65-2.44z"/>
  <path fill="context-fill" fill-opacity="context-fill-opacity" class="cls-1" d="M8 0a8 8 0 1 0 8 8 8 8 0 0 0-8-8zm5.24 10.91L11.5 9.52a2.94 2.94 0 0 1-0.81 1.92l1.3 1a6 6 0 0 1-9.23-7.35L4.5 6.48a2.94 2.94 0 0 1 0.81-1.92L4 3.53a6 6 0 0 1 9.23 7.38z"/>
</svg>
